<svg width="25" height="26" viewBox="0 0 25 26" fill="none" xmlns="http://www.w3.org/2000/svg">
<g clip-path="url(#clip0_594_1925)">
<path d="M23.4375 5.91395V9.09363H1.5625V5.91395C1.57053 5.29985 1.82178 4.714 2.26115 4.28489C2.70052 3.85577 3.29213 3.61842 3.90625 3.62488H5.46875V5.18738C5.46875 5.80899 5.71568 6.40513 6.15522 6.84467C6.59476 7.2842 7.1909 7.53113 7.8125 7.53113C8.4341 7.53113 9.03024 7.2842 9.46978 6.84467C9.90932 6.40513 10.1562 5.80899 10.1562 5.18738V3.62488H14.8438V5.18738C14.8438 5.80899 15.0907 6.40513 15.5302 6.84467C15.9698 7.2842 16.5659 7.53113 17.1875 7.53113C17.8091 7.53113 18.4052 7.2842 18.8448 6.84467C19.2843 6.40513 19.5312 5.80899 19.5312 5.18738V3.62488H21.0938C21.7079 3.61842 22.2995 3.85577 22.7388 4.28489C23.1782 4.714 23.4295 5.29985 23.4375 5.91395ZM1.5625 10.6561V23.2108C1.57053 23.8249 1.82178 24.4108 2.26115 24.8399C2.70052 25.269 3.29213 25.5063 3.90625 25.4999H21.0938C21.7079 25.5063 22.2995 25.269 22.7388 24.8399C23.1782 24.4108 23.4295 23.8249 23.4375 23.2108V10.6561H1.5625ZM8.59375 21.5936C8.59313 21.8006 8.51062 21.999 8.36424 22.1454C8.21787 22.2918 8.01951 22.3743 7.8125 22.3749H6.25C6.04299 22.3743 5.84464 22.2918 5.69826 22.1454C5.55188 21.999 5.46937 21.8006 5.46875 21.5936V20.0311C5.46937 19.8241 5.55188 19.6258 5.69826 19.4794C5.84464 19.333 6.04299 19.2505 6.25 19.2499H7.8125C8.01951 19.2505 8.21787 19.333 8.36424 19.4794C8.51062 19.6258 8.59313 19.8241 8.59375 20.0311V21.5936ZM8.59375 16.1249C8.59313 16.3319 8.51062 16.5302 8.36424 16.6766C8.21787 16.823 8.01951 16.9055 7.8125 16.9061H6.25C6.04299 16.9055 5.84464 16.823 5.69826 16.6766C5.55188 16.5302 5.46937 16.3319 5.46875 16.1249V14.5624C5.46937 14.3554 5.55188 14.157 5.69826 14.0106C5.84464 13.8643 6.04299 13.7818 6.25 13.7811H7.8125C8.01951 13.7818 8.21787 13.8643 8.36424 14.0106C8.51062 14.157 8.59313 14.3554 8.59375 14.5624V16.1249ZM14.0625 21.5936C14.0619 21.8006 13.9794 21.999 13.833 22.1454C13.6866 22.2918 13.4883 22.3743 13.2812 22.3749H11.7188C11.5117 22.3743 11.3134 22.2918 11.167 22.1454C11.0206 21.999 10.9381 21.8006 10.9375 21.5936V20.0311C10.9381 19.8241 11.0206 19.6258 11.167 19.4794C11.3134 19.333 11.5117 19.2505 11.7188 19.2499H13.2812C13.4883 19.2505 13.6866 19.333 13.833 19.4794C13.9794 19.6258 14.0619 19.8241 14.0625 20.0311V21.5936ZM14.0625 16.1249C14.0619 16.3319 13.9794 16.5302 13.833 16.6766C13.6866 16.823 13.4883 16.9055 13.2812 16.9061H11.7188C11.5117 16.9055 11.3134 16.823 11.167 16.6766C11.0206 16.5302 10.9381 16.3319 10.9375 16.1249V14.5624C10.9381 14.3554 11.0206 14.157 11.167 14.0106C11.3134 13.8643 11.5117 13.7818 11.7188 13.7811H13.2812C13.4883 13.7818 13.6866 13.8643 13.833 14.0106C13.9794 14.157 14.0619 14.3554 14.0625 14.5624V16.1249ZM19.5312 16.1249C19.5306 16.3319 19.4481 16.5302 19.3017 16.6766C19.1554 16.823 18.957 16.9055 18.75 16.9061H17.1875C16.9805 16.9055 16.7821 16.823 16.6358 16.6766C16.4894 16.5302 16.4069 16.3319 16.4062 16.1249V14.5624C16.4069 14.3554 16.4894 14.157 16.6358 14.0106C16.7821 13.8643 16.9805 13.7818 17.1875 13.7811H18.75C18.957 13.7818 19.1554 13.8643 19.3017 14.0106C19.4481 14.157 19.5306 14.3554 19.5312 14.5624V16.1249Z" fill="#BAC4D8"/>
<path d="M8.59375 3.625V5.1875C8.59375 5.3947 8.51144 5.59341 8.36493 5.73993C8.21841 5.88644 8.0197 5.96875 7.8125 5.96875C7.6053 5.96875 7.40659 5.88644 7.26007 5.73993C7.11356 5.59341 7.03125 5.3947 7.03125 5.1875V3.625C7.03125 3.4178 7.11356 3.21909 7.26007 3.07257C7.40659 2.92606 7.6053 2.84375 7.8125 2.84375C8.0197 2.84375 8.21841 2.92606 8.36493 3.07257C8.51144 3.21909 8.59375 3.4178 8.59375 3.625ZM17.9688 3.625V5.1875C17.9688 5.3947 17.8864 5.59341 17.7399 5.73993C17.5934 5.88644 17.3947 5.96875 17.1875 5.96875C16.9803 5.96875 16.7816 5.88644 16.6351 5.73993C16.4886 5.59341 16.4062 5.3947 16.4062 5.1875V3.625C16.4062 3.4178 16.4886 3.21909 16.6351 3.07257C16.7816 2.92606 16.9803 2.84375 17.1875 2.84375C17.3947 2.84375 17.5934 2.92606 17.7399 3.07257C17.8864 3.21909 17.9688 3.4178 17.9688 3.625Z" fill="#BAC4D8"/>
</g>
<defs>
<clipPath id="clip0_594_1925">
<rect width="25" height="25" fill="white" transform="translate(0 0.5)"/>
</clipPath>
</defs>
</svg>
