<svg width="14" height="17" viewBox="0 0 14 17" fill="none" xmlns="http://www.w3.org/2000/svg">
<path fill-rule="evenodd" clip-rule="evenodd" d="M5.42551 0.166687C4.81217 0.166687 4.31467 0.664187 4.31467 1.27752C4.31467 1.35058 4.30027 1.42293 4.27228 1.49042C4.2443 1.55791 4.20328 1.61922 4.15158 1.67085C4.09988 1.72247 4.0385 1.7634 3.97097 1.79128C3.90344 1.81917 3.83107 1.83346 3.75801 1.83335H1.16634C0.945327 1.83335 0.733366 1.92115 0.577086 2.07743C0.420805 2.23371 0.333008 2.44567 0.333008 2.66669C0.333008 2.8877 0.420805 3.09966 0.577086 3.25594C0.733366 3.41222 0.945327 3.50002 1.16634 3.50002H12.833C13.054 3.50002 13.266 3.41222 13.4223 3.25594C13.5785 3.09966 13.6663 2.8877 13.6663 2.66669C13.6663 2.44567 13.5785 2.23371 13.4223 2.07743C13.266 1.92115 13.054 1.83335 12.833 1.83335H10.2397C10.0924 1.83313 9.95124 1.77447 9.84718 1.67026C9.74312 1.56604 9.68467 1.42479 9.68467 1.27752C9.68467 0.664187 9.18717 0.166687 8.57384 0.166687H5.42551ZM1.99967 5.16669C1.88438 5.16664 1.77033 5.19051 1.66473 5.2368C1.55913 5.28309 1.46429 5.35079 1.3862 5.43561C1.30811 5.52044 1.24848 5.62054 1.21106 5.7296C1.17365 5.83865 1.15927 5.95429 1.16884 6.06919L1.81134 13.7775C1.88094 14.6106 2.26104 15.3872 2.87629 15.9532C3.49154 16.5192 4.29701 16.8333 5.13301 16.8334H8.86634C9.70247 16.8333 10.5081 16.519 11.1233 15.9529C11.7386 15.3867 12.1186 14.6099 12.188 13.7767L12.8297 6.06919C12.8392 5.95436 12.8249 5.8388 12.7875 5.7298C12.7502 5.6208 12.6906 5.52073 12.6126 5.43592C12.5346 5.35111 12.4399 5.28339 12.3344 5.23705C12.2289 5.19071 12.1149 5.16675 11.9997 5.16669H1.99967Z" fill="#E36B6B"/>
</svg>
