<svg width="14" height="14" viewBox="0 0 14 14" fill="none" xmlns="http://www.w3.org/2000/svg">
<g clip-path="url(#clip0_590_24958)">
<path d="M11.0833 6.99998C10.9286 6.99998 10.7803 7.06144 10.6709 7.17083C10.5615 7.28023 10.5 7.4286 10.5 7.58331V12.25C10.5 12.5714 10.2387 12.8333 9.91667 12.8333H1.75C1.428 12.8333 1.16667 12.5714 1.16667 12.25V4.08331C1.16667 3.7619 1.428 3.49998 1.75 3.49998H6.41667C6.57138 3.49998 6.71975 3.43852 6.82915 3.32913C6.93854 3.21973 7 3.07136 7 2.91665C7 2.76194 6.93854 2.61356 6.82915 2.50417C6.71975 2.39477 6.57138 2.33331 6.41667 2.33331H1.75C0.785167 2.33331 0 3.11848 0 4.08331V12.25C0 13.2148 0.785167 14 1.75 14H9.91667C10.8815 14 11.6667 13.2148 11.6667 12.25V7.58331C11.6667 7.4286 11.6052 7.28023 11.4958 7.17083C11.3864 7.06144 11.238 6.99998 11.0833 6.99998Z" fill="#9FA9BC"/>
<path d="M5.46949 6.46857C5.42894 6.50931 5.40116 6.56101 5.38958 6.61732L4.97716 8.67999C4.96791 8.72707 4.9704 8.77571 4.9844 8.8216C4.99841 8.8675 5.0235 8.90924 5.05745 8.94314C5.09141 8.97704 5.1332 9.00206 5.17911 9.01598C5.22503 9.02991 5.27367 9.03231 5.32074 9.02299L7.38283 8.61057C7.43945 8.59939 7.49145 8.57156 7.53216 8.53065L12.1475 3.91532L10.0854 1.85324L5.46949 6.46857ZM13.5732 0.426986C13.2995 0.153876 12.9287 0.000488281 12.5421 0.000488281C12.1555 0.000488281 11.7847 0.153876 11.5111 0.426986L10.7037 1.23432L12.7658 3.2964L13.5732 2.48907C13.8485 2.21432 14.0002 1.84799 14.0002 1.45832C14.0002 1.06865 13.8485 0.70232 13.5732 0.426986Z" fill="#9FA9BC"/>
</g>
<defs>
<clipPath id="clip0_590_24958">
<rect width="14" height="14" fill="white"/>
</clipPath>
</defs>
</svg>
