<svg width="274" height="274" viewBox="0 0 274 274" fill="none" xmlns="http://www.w3.org/2000/svg">
<circle cx="136.656" cy="136.656" r="117.676" stroke="#788899" stroke-width="37.9601"/>
<path d="M94.725 148.429H95.2004C97.2022 148.429 98.9204 148.187 100.355 147.703C101.806 147.203 102.999 146.485 103.933 145.551C104.867 144.617 105.56 143.474 106.01 142.123C106.461 140.755 106.686 139.204 106.686 137.469V130.563C106.686 129.245 106.552 128.085 106.285 127.084C106.035 126.084 105.668 125.258 105.184 124.607C104.717 123.94 104.167 123.439 103.533 123.106C102.916 122.772 102.232 122.605 101.481 122.605C100.68 122.605 99.9714 122.806 99.3542 123.206C98.7369 123.59 98.2115 124.115 97.7778 124.782C97.3607 125.45 97.0354 126.217 96.8019 127.084C96.585 127.935 96.4766 128.828 96.4766 129.762C96.4766 130.696 96.585 131.588 96.8019 132.439C97.0187 133.273 97.344 134.016 97.7778 134.666C98.2115 135.3 98.7536 135.809 99.4042 136.193C100.055 136.56 100.822 136.743 101.706 136.743C102.557 136.743 103.316 136.585 103.983 136.268C104.667 135.934 105.243 135.5 105.71 134.967C106.194 134.433 106.561 133.84 106.811 133.19C107.078 132.539 107.211 131.88 107.211 131.213L109.588 132.514C109.588 133.682 109.338 134.833 108.838 135.967C108.337 137.102 107.637 138.136 106.736 139.07C105.852 139.988 104.826 140.722 103.658 141.272C102.49 141.823 101.239 142.098 99.9047 142.098C98.2031 142.098 96.6934 141.789 95.3756 141.172C94.0577 140.538 92.9401 139.671 92.0226 138.57C91.1218 137.452 90.4378 136.151 89.9707 134.666C89.5036 133.182 89.2701 131.572 89.2701 129.837C89.2701 128.069 89.5537 126.409 90.1209 124.857C90.7047 123.306 91.5305 121.938 92.5981 120.754C93.6824 119.569 94.9752 118.643 96.4766 117.976C97.9946 117.292 99.6795 116.95 101.531 116.95C103.383 116.95 105.068 117.309 106.586 118.026C108.104 118.744 109.405 119.761 110.489 121.079C111.573 122.38 112.408 123.94 112.991 125.758C113.592 127.577 113.892 129.595 113.892 131.814V134.316C113.892 136.685 113.634 138.887 113.117 140.922C112.616 142.957 111.857 144.8 110.84 146.452C109.839 148.087 108.587 149.488 107.086 150.656C105.601 151.823 103.875 152.716 101.906 153.333C99.938 153.95 97.736 154.259 95.3005 154.259H94.725V148.429ZM124.151 148.429H124.627C126.629 148.429 128.347 148.187 129.782 147.703C131.233 147.203 132.426 146.485 133.36 145.551C134.294 144.617 134.986 143.474 135.437 142.123C135.887 140.755 136.112 139.204 136.112 137.469V130.563C136.112 129.245 135.979 128.085 135.712 127.084C135.462 126.084 135.095 125.258 134.611 124.607C134.144 123.94 133.593 123.439 132.959 123.106C132.342 122.772 131.658 122.605 130.908 122.605C130.107 122.605 129.398 122.806 128.781 123.206C128.163 123.59 127.638 124.115 127.204 124.782C126.787 125.45 126.462 126.217 126.228 127.084C126.011 127.935 125.903 128.828 125.903 129.762C125.903 130.696 126.011 131.588 126.228 132.439C126.445 133.273 126.77 134.016 127.204 134.666C127.638 135.3 128.18 135.809 128.831 136.193C129.481 136.56 130.249 136.743 131.133 136.743C131.984 136.743 132.743 136.585 133.41 136.268C134.094 135.934 134.669 135.5 135.136 134.967C135.62 134.433 135.987 133.84 136.237 133.19C136.504 132.539 136.638 131.88 136.638 131.213L139.015 132.514C139.015 133.682 138.765 134.833 138.264 135.967C137.764 137.102 137.063 138.136 136.162 139.07C135.278 139.988 134.252 140.722 133.085 141.272C131.917 141.823 130.666 142.098 129.331 142.098C127.63 142.098 126.12 141.789 124.802 141.172C123.484 140.538 122.367 139.671 121.449 138.57C120.548 137.452 119.864 136.151 119.397 134.666C118.93 133.182 118.697 131.572 118.697 129.837C118.697 128.069 118.98 126.409 119.547 124.857C120.131 123.306 120.957 121.938 122.025 120.754C123.109 119.569 124.402 118.643 125.903 117.976C127.421 117.292 129.106 116.95 130.958 116.95C132.809 116.95 134.494 117.309 136.012 118.026C137.53 118.744 138.831 119.761 139.916 121.079C141 122.38 141.834 123.94 142.418 125.758C143.018 127.577 143.319 129.595 143.319 131.814V134.316C143.319 136.685 143.06 138.887 142.543 140.922C142.043 142.957 141.284 144.8 140.266 146.452C139.265 148.087 138.014 149.488 136.513 150.656C135.028 151.823 133.301 152.716 131.333 153.333C129.364 153.95 127.163 154.259 124.727 154.259H124.151V148.429ZM148.373 126.409V124.482C148.373 123.097 148.674 121.838 149.274 120.704C149.875 119.569 150.759 118.66 151.926 117.976C153.094 117.292 154.529 116.95 156.23 116.95C157.982 116.95 159.442 117.292 160.609 117.976C161.794 118.66 162.678 119.569 163.262 120.704C163.862 121.838 164.162 123.097 164.162 124.482V126.409C164.162 127.76 163.862 129.003 163.262 130.137C162.678 131.272 161.802 132.181 160.634 132.865C159.467 133.549 158.015 133.891 156.28 133.891C154.562 133.891 153.111 133.549 151.926 132.865C150.759 132.181 149.875 131.272 149.274 130.137C148.674 129.003 148.373 127.76 148.373 126.409ZM153.153 124.482V126.409C153.153 126.993 153.261 127.551 153.478 128.085C153.711 128.602 154.062 129.028 154.529 129.361C155.013 129.678 155.596 129.837 156.28 129.837C156.998 129.837 157.582 129.678 158.032 129.361C158.482 129.028 158.816 128.602 159.033 128.085C159.25 127.551 159.358 126.993 159.358 126.409V124.482C159.358 123.865 159.241 123.298 159.008 122.781C158.791 122.247 158.449 121.821 157.982 121.504C157.531 121.171 156.948 121.004 156.23 121.004C155.563 121.004 154.996 121.171 154.529 121.504C154.062 121.821 153.711 122.247 153.478 122.781C153.261 123.298 153.153 123.865 153.153 124.482ZM165.789 146.902V144.976C165.789 143.608 166.089 142.356 166.69 141.222C167.307 140.088 168.199 139.179 169.367 138.495C170.552 137.811 172.003 137.469 173.721 137.469C175.456 137.469 176.907 137.811 178.075 138.495C179.243 139.179 180.127 140.088 180.727 141.222C181.328 142.356 181.628 143.608 181.628 144.976V146.902C181.628 148.27 181.328 149.521 180.727 150.656C180.144 151.79 179.268 152.699 178.1 153.383C176.932 154.067 175.489 154.409 173.771 154.409C172.036 154.409 170.577 154.067 169.392 153.383C168.208 152.699 167.307 151.79 166.69 150.656C166.089 149.521 165.789 148.27 165.789 146.902ZM170.593 144.976V146.902C170.593 147.503 170.727 148.07 170.994 148.604C171.261 149.138 171.628 149.563 172.095 149.88C172.578 150.197 173.137 150.355 173.771 150.355C174.572 150.355 175.197 150.197 175.648 149.88C176.098 149.563 176.407 149.138 176.574 148.604C176.757 148.07 176.849 147.503 176.849 146.902V144.976C176.849 144.375 176.732 143.816 176.499 143.299C176.265 142.765 175.915 142.34 175.448 142.023C174.997 141.689 174.422 141.522 173.721 141.522C173.02 141.522 172.437 141.689 171.969 142.023C171.519 142.34 171.177 142.765 170.944 143.299C170.71 143.816 170.593 144.375 170.593 144.976ZM175.498 122.68L157.707 151.156L154.204 149.304L171.995 120.829L175.498 122.68Z" fill="white"/>
<mask id="path-3-inside-1_590_14274" fill="white">
<path d="M87.8444 243.519C83.4448 253.151 71.9752 257.501 63.0533 251.798C52.5504 245.084 42.9898 236.948 34.6543 227.599C22.0536 213.466 12.5274 196.868 6.67992 178.859C0.832417 160.85 -1.20877 141.822 0.685806 122.983C2.58039 104.143 8.36939 85.9026 17.6857 69.4184C27.0019 52.9342 39.6422 38.5659 54.8046 27.2248C69.9671 15.8837 87.321 7.81727 105.766 3.53715C124.21 -0.742973 143.343 -1.14339 161.95 2.36129C174.259 4.67967 186.161 8.67344 197.33 14.208C206.818 18.9094 209.008 30.9791 203.026 39.7165C197.044 48.454 185.152 50.4872 175.421 46.3118C168.832 43.4847 161.936 41.3792 154.853 40.045C141.467 37.5238 127.703 37.8118 114.434 40.8909C101.165 43.97 88.6804 49.773 77.7725 57.9317C66.8647 66.0905 57.7714 76.4269 51.0693 88.2856C44.3672 100.144 40.2026 113.266 38.8397 126.819C37.4767 140.373 38.9452 154.061 43.1518 167.017C47.3585 179.973 54.2116 191.913 63.2765 202.08C68.0734 207.46 73.4343 212.282 79.2551 216.468C87.8517 222.651 92.2439 233.887 87.8444 243.519Z"/>
</mask>
<path d="M87.8444 243.519C83.4448 253.151 71.9752 257.501 63.0533 251.798C52.5504 245.084 42.9898 236.948 34.6543 227.599C22.0536 213.466 12.5274 196.868 6.67992 178.859C0.832417 160.85 -1.20877 141.822 0.685806 122.983C2.58039 104.143 8.36939 85.9026 17.6857 69.4184C27.0019 52.9342 39.6422 38.5659 54.8046 27.2248C69.9671 15.8837 87.321 7.81727 105.766 3.53715C124.21 -0.742973 143.343 -1.14339 161.95 2.36129C174.259 4.67967 186.161 8.67344 197.33 14.208C206.818 18.9094 209.008 30.9791 203.026 39.7165C197.044 48.454 185.152 50.4872 175.421 46.3118C168.832 43.4847 161.936 41.3792 154.853 40.045C141.467 37.5238 127.703 37.8118 114.434 40.8909C101.165 43.97 88.6804 49.773 77.7725 57.9317C66.8647 66.0905 57.7714 76.4269 51.0693 88.2856C44.3672 100.144 40.2026 113.266 38.8397 126.819C37.4767 140.373 38.9452 154.061 43.1518 167.017C47.3585 179.973 54.2116 191.913 63.2765 202.08C68.0734 207.46 73.4343 212.282 79.2551 216.468C87.8517 222.651 92.2439 233.887 87.8444 243.519Z" stroke="url(#paint0_linear_590_14274)" stroke-width="102.492" stroke-linejoin="round" mask="url(#path-3-inside-1_590_14274)"/>
<defs>
<linearGradient id="paint0_linear_590_14274" x1="136.656" y1="0" x2="30.7477" y2="196.443" gradientUnits="userSpaceOnUse">
<stop stop-color="white"/>
<stop offset="1" stop-color="#788899"/>
</linearGradient>
</defs>
</svg>
