<svg width="15" height="14" viewBox="0 0 15 14" fill="none" xmlns="http://www.w3.org/2000/svg">
<path d="M13.8949 8.95502C13.8238 8.88361 13.7327 8.83538 13.6336 8.81664C13.5346 8.7979 13.4322 8.80954 13.3399 8.85002C12.2016 9.34634 10.9403 9.48825 9.7202 9.25727C8.50012 9.02628 7.37792 8.4331 6.49986 7.55505C5.62181 6.677 5.02863 5.5548 4.79765 4.33472C4.56666 3.11464 4.70857 1.85327 5.2049 0.715016C5.24596 0.622658 5.25806 0.520024 5.23961 0.420648C5.22117 0.321271 5.17303 0.229819 5.10156 0.158349C5.03009 0.0868786 4.93864 0.038747 4.83927 0.0203001C4.73989 0.00185318 4.63726 0.0139572 4.5449 0.0550163C3.47529 0.523884 2.5363 1.24675 1.80946 2.16086C1.08262 3.07497 0.589895 4.15268 0.374073 5.30042C0.15825 6.44817 0.225852 7.63124 0.57101 8.74693C0.916167 9.86262 1.52845 10.8772 2.35468 11.7026C3.18092 12.5279 4.19614 13.1391 5.31219 13.4831C6.42824 13.8271 7.61139 13.8934 8.7589 13.6764C9.90642 13.4594 10.9836 12.9655 11.8969 12.2377C12.8103 11.5099 13.5322 10.5701 13.9999 9.50002C14.0382 9.40896 14.0486 9.3086 14.03 9.21161C14.0113 9.11462 13.9643 9.02533 13.8949 8.95502Z" fill="#1F2433"/>
</svg>
