<svg width="16" height="16" viewBox="0 0 16 16" fill="none" xmlns="http://www.w3.org/2000/svg">
<path d="M3.404 4.11101C3.5995 4.30651 3.916 4.30651 4.11098 4.11101C4.30599 3.9155 4.30599 3.59901 4.11098 3.40403L3.05051 2.34301C2.85501 2.1475 2.53851 2.1475 2.3435 2.34301C2.148 2.53851 2.148 2.85501 2.3435 3.05001L3.404 4.11101ZM3.70499 11.595L2.65448 12.6455C2.46099 12.839 2.46099 13.1525 2.65448 13.346C2.84797 13.5395 3.16149 13.5395 3.35498 13.346L4.40549 12.2955C4.59898 12.102 4.59898 11.7885 4.40549 11.595C4.212 11.4015 3.89851 11.4015 3.70499 11.595ZM8 2.5C8.276 2.5 8.5 2.276 8.5 2V0.5C8.5 0.224 8.276 0 8 0C7.724 0 7.5 0.224 7.5 0.5V2C7.5 2.276 7.724 2.5 8 2.5ZM12.8105 3.88999L13.861 2.83948C14.0545 2.64599 14.0545 2.33247 13.861 2.13898C13.6675 1.94549 13.354 1.94549 13.1605 2.13898L12.11 3.18949C11.9165 3.38298 11.9165 3.6965 12.11 3.88999C12.3035 4.0835 12.617 4.0835 12.8105 3.88999ZM2 7.5H0.5C0.224 7.5 0 7.724 0 8C0 8.276 0.224 8.5 0.5 8.5H2C2.276 8.5 2.5 8.276 2.5 8C2.5 7.724 2.276 7.5 2 7.5ZM8 13.5C7.724 13.5 7.5 13.724 7.5 14V15.5C7.5 15.776 7.724 16 8 16C8.276 16 8.5 15.776 8.5 15.5V14C8.5 13.724 8.276 13.5 8 13.5ZM15.5 7.5H14C13.724 7.5 13.5 7.724 13.5 8C13.5 8.276 13.724 8.5 14 8.5H15.5C15.776 8.5 16 8.276 16 8C16 7.724 15.776 7.5 15.5 7.5ZM12.596 11.889C12.4005 11.6935 12.084 11.6935 11.889 11.889C11.6935 12.0845 11.6935 12.401 11.889 12.596L12.9495 13.6565C13.145 13.852 13.4615 13.852 13.6565 13.6565C13.8515 13.461 13.852 13.1445 13.6565 12.9495L12.596 11.889ZM8 3.49699C5.51299 3.49699 3.49699 5.51299 3.49699 8C3.49699 10.487 5.51299 12.503 8 12.503C10.487 12.503 12.503 10.487 12.503 8C12.503 5.51299 10.487 3.49699 8 3.49699Z" fill="#F2B174"/>
</svg>
